<?xml version="1.0" encoding="UTF-8"?>
<!DOCTYPE svg PUBLIC "-//W3C//DTD SVG 1.1//EN" "http://www.w3.org/Graphics/SVG/1.1/DTD/svg11.dtd">
<svg xmlns="http://www.w3.org/2000/svg" version="1.1" width="512px" height="512px" style="shape-rendering:geometricPrecision; text-rendering:geometricPrecision; image-rendering:optimizeQuality; fill-rule:evenodd; clip-rule:evenodd" xmlns:xlink="http://www.w3.org/1999/xlink">
<g><path style="opacity:0.996" fill="#80b6fc" d="M 312.5,-0.5 C 316.167,-0.5 319.833,-0.5 323.5,-0.5C 327.736,2.28377 330.236,6.28377 331,11.5C 335.994,29.8092 340.827,48.1425 345.5,66.5C 343.792,68.7176 341.792,70.8843 339.5,73C 332.034,75.1975 324.701,77.6975 317.5,80.5C 316.808,81.0253 316.308,81.6919 316,82.5C 315.558,107.278 303.058,119.444 278.5,119C 267.995,116.495 260.495,110.329 256,100.5C 254.53,98.8481 252.697,97.8481 250.5,97.5C 209.716,108.57 168.883,119.237 128,129.5C 122.653,129.502 117.82,128.002 113.5,125C 91.3923,107.291 69.7256,89.1242 48.5,70.5C 136.772,47.4339 224.772,23.7672 312.5,-0.5 Z"/></g>
<g><path style="opacity:1" fill="#62a4fb" d="M 345.5,66.5 C 347.901,74.0396 349.901,81.7063 351.5,89.5C 351.227,94.2121 349.227,98.0455 345.5,101C 337.809,102.619 330.476,105.119 323.5,108.5C 323.192,109.308 322.692,109.975 322,110.5C 321.133,137.705 307.3,149.205 280.5,145C 271.892,141.392 265.559,135.392 261.5,127C 259.801,126.042 257.967,125.542 256,125.5C 217.735,135.275 179.569,145.441 141.5,156C 133.555,157.583 126.222,156.25 119.5,152C 99.5633,134.885 79.23,118.385 58.5,102.5C 53.5284,97.699 48.3618,93.0324 43,88.5C 39.0892,80.7329 40.9226,74.7329 48.5,70.5C 69.7256,89.1242 91.3923,107.291 113.5,125C 117.82,128.002 122.653,129.502 128,129.5C 168.883,119.237 209.716,108.57 250.5,97.5C 252.697,97.8481 254.53,98.8481 256,100.5C 260.495,110.329 267.995,116.495 278.5,119C 303.058,119.444 315.558,107.278 316,82.5C 316.308,81.6919 316.808,81.0253 317.5,80.5C 324.701,77.6975 332.034,75.1975 339.5,73C 341.792,70.8843 343.792,68.7176 345.5,66.5 Z"/></g>
<g><path style="opacity:0.998" fill="#dceafc" d="M 351.5,89.5 C 355.946,104.278 359.946,119.278 363.5,134.5C 363.405,146.433 357.405,153.266 345.5,155C 260.817,177.669 176.15,200.336 91.5,223C 79.66,226.903 70.9933,223.403 65.5,212.5C 60.5871,191.835 54.9204,171.502 48.5,151.5C 46.4939,143.143 44.3272,134.809 42,126.5C 40.1623,113.498 45.6623,105.498 58.5,102.5C 79.23,118.385 99.5633,134.885 119.5,152C 126.222,156.25 133.555,157.583 141.5,156C 179.569,145.441 217.735,135.275 256,125.5C 257.967,125.542 259.801,126.042 261.5,127C 265.559,135.392 271.892,141.392 280.5,145C 307.3,149.205 321.133,137.705 322,110.5C 322.692,109.975 323.192,109.308 323.5,108.5C 330.476,105.119 337.809,102.619 345.5,101C 349.227,98.0455 351.227,94.2121 351.5,89.5 Z"/></g>
<g><path style="opacity:1" fill="#bed9fc" d="M 363.5,134.5 C 366.686,144.065 369.352,153.899 371.5,164C 370.945,171.118 367.611,176.452 361.5,180C 348.612,183.972 335.612,187.472 322.5,190.5C 295.935,197.388 269.601,204.722 243.5,212.5C 192.376,225.929 141.209,239.263 90,252.5C 83.3529,251.843 78.0196,248.843 74,243.5C 71.0065,233.855 68.1731,224.189 65.5,214.5C 65.5,213.833 65.5,213.167 65.5,212.5C 70.9933,223.403 79.66,226.903 91.5,223C 176.15,200.336 260.817,177.669 345.5,155C 357.405,153.266 363.405,146.433 363.5,134.5 Z"/></g>
<g><path style="opacity:0.985" fill="#8c818f" d="M 48.5,151.5 C 54.9204,171.502 60.5871,191.835 65.5,212.5C 65.5,213.167 65.5,213.833 65.5,214.5C 55.0616,219.386 44.3949,223.719 33.5,227.5C 28.6601,226.83 24.8267,224.496 22,220.5C 17.5135,204.889 13.1802,189.222 9,173.5C 6.78897,164.419 9.95564,158.252 18.5,155C 28.5101,153.832 38.5101,152.665 48.5,151.5 Z"/></g>
<g><path style="opacity:1" fill="#df6937" d="M 322.5,190.5 C 324.526,199.27 326.859,207.937 329.5,216.5C 303.232,223.47 276.899,230.136 250.5,236.5C 248.457,228.31 246.123,220.31 243.5,212.5C 269.601,204.722 295.935,197.388 322.5,190.5 Z"/></g>
<g><path style="opacity:0.988" fill="#e17b48" d="M 329.5,216.5 C 331.506,224.857 333.673,233.191 336,241.5C 337.655,246.937 336.155,251.103 331.5,254C 324.767,254.344 318.1,253.844 311.5,252.5C 296.87,250.57 282.203,248.904 267.5,247.5C 258.355,248.998 252.688,245.331 250.5,236.5C 276.899,230.136 303.232,223.47 329.5,216.5 Z"/></g>
<g><path style="opacity:0.987" fill="#8c818e" d="M 267.5,247.5 C 282.203,248.904 296.87,250.57 311.5,252.5C 311.5,268.167 311.5,283.833 311.5,299.5C 307.5,299.5 303.5,299.5 299.5,299.5C 288.833,299.5 278.167,299.5 267.5,299.5C 267.5,282.167 267.5,264.833 267.5,247.5 Z"/></g>
<g><path style="opacity:0.994" fill="#e17b48" d="M 498.5,511.5 C 485.833,511.5 473.167,511.5 460.5,511.5C 451.089,508.598 444.256,502.598 440,493.5C 438.566,478.558 438.066,463.558 438.5,448.5C 438.5,443.167 438.5,437.833 438.5,432.5C 438.5,427.5 438.5,422.5 438.5,417.5C 438.5,388.167 438.5,358.833 438.5,329.5C 438.333,309.831 438.5,290.164 439,270.5C 441.5,258.667 448.667,251.5 460.5,249C 473.167,248.333 485.833,248.333 498.5,249C 499.931,249.465 501.097,250.299 502,251.5C 502.667,336.833 502.667,422.167 502,507.5C 501.31,509.35 500.144,510.684 498.5,511.5 Z"/></g>
<g><path style="opacity:0.995" fill="#80b5fb" d="M 267.5,299.5 C 278.167,299.5 288.833,299.5 299.5,299.5C 304.625,300.448 308.125,303.448 310,308.5C 310.667,338.5 310.667,368.5 310,398.5C 307.823,403.85 303.99,407.184 298.5,408.5C 298.167,408.5 297.833,408.5 297.5,408.5C 292.167,407.167 286.833,407.167 281.5,408.5C 270.445,408.879 259.445,408.379 248.5,407C 245.272,405.437 243.105,402.937 242,399.5C 241.333,368.833 241.333,338.167 242,307.5C 243.593,303.572 246.427,301.072 250.5,300C 256.157,299.501 261.824,299.334 267.5,299.5 Z"/></g>
<g><path style="opacity:1" fill="#62a4fa" d="M 299.5,299.5 C 303.5,299.5 307.5,299.5 311.5,299.5C 317.176,299.334 322.843,299.501 328.5,300C 331.539,301.031 334.039,302.865 336,305.5C 337.401,313.415 337.901,321.415 337.5,329.5C 337.5,345.833 337.5,362.167 337.5,378.5C 337.666,385.508 337.5,392.508 337,399.5C 335.15,405.016 331.317,407.85 325.5,408C 316.506,408.5 307.506,408.666 298.5,408.5C 303.99,407.184 307.823,403.85 310,398.5C 310.667,368.5 310.667,338.5 310,308.5C 308.125,303.448 304.625,300.448 299.5,299.5 Z"/></g>
<g><path style="opacity:1" fill="#766d78" d="M 337.5,329.5 C 349.167,329.5 360.833,329.5 372.5,329.5C 372.5,350.167 372.5,370.833 372.5,391.5C 360.899,386.967 349.232,382.633 337.5,378.5C 337.5,362.167 337.5,345.833 337.5,329.5 Z"/></g>
<g><path style="opacity:0.996" fill="#8c818f" d="M 372.5,329.5 C 394.5,329.5 416.5,329.5 438.5,329.5C 438.5,358.833 438.5,388.167 438.5,417.5C 416.416,409.028 394.416,400.361 372.5,391.5C 372.5,370.833 372.5,350.167 372.5,329.5 Z"/></g>
<g><path style="opacity:0.965" fill="#756c77" d="M 297.5,408.5 C 297.333,431.836 297.5,455.169 298,478.5C 302.26,492.38 311.426,497.546 325.5,494C 331.82,491.014 335.987,486.181 338,479.5C 335.991,455.312 346.491,439.812 369.5,433C 392.498,432.5 415.498,432.333 438.5,432.5C 438.5,437.833 438.5,443.167 438.5,448.5C 417.164,448.333 395.831,448.5 374.5,449C 366.62,450.352 360.787,454.519 357,461.5C 355.781,468.783 354.781,476.117 354,483.5C 349.984,498.015 340.817,507.348 326.5,511.5C 320.833,511.5 315.167,511.5 309.5,511.5C 296.356,507.859 287.522,499.525 283,486.5C 281.537,460.551 281.037,434.551 281.5,408.5C 286.833,407.167 292.167,407.167 297.5,408.5 Z"/></g>
</svg>
